<svg height="512" viewBox="0 0 512 512" width="512" xmlns="http://www.w3.org/2000/svg"><g id="flat"><path d="m400 288a8 8 0 0 1 -7.155-4.421l-.845-1.689a17.79 17.79 0 0 0 -16-9.89 8 8 0 0 1 0-16 33.7 33.7 0 0 1 24 9.931 33.7 33.7 0 0 1 24-9.931 8 8 0 0 1 0 16 17.791 17.791 0 0 0 -16 9.889l-.845 1.69a8 8 0 0 1 -7.155 4.421z" fill="#b0d2fd"/><path d="m440 240a8 8 0 0 1 -7.155-4.421l-.845-1.689a17.79 17.79 0 0 0 -16-9.89 8 8 0 0 1 0-16 33.7 33.7 0 0 1 24 9.931 33.7 33.7 0 0 1 24-9.931 8 8 0 0 1 0 16 17.791 17.791 0 0 0 -16 9.889l-.845 1.69a8 8 0 0 1 -7.155 4.421z" fill="#b0d2fd"/><path d="m384 112h-24a8 8 0 0 1 0-16h24a8 8 0 0 1 0 16z" fill="#b0d2fd"/><path d="m240 232h-24a8 8 0 0 1 0-16h24a8 8 0 0 1 0 16z" fill="#b0d2fd"/><path d="m288 232h-16a8 8 0 0 1 0-16h16a8 8 0 0 1 0 16z" fill="#b0d2fd"/><path d="m416 80h-16a8 8 0 0 1 0-16h16a8 8 0 0 1 0 16z" fill="#b0d2fd"/><path d="m182.672 280v-49.352a168.407 168.407 0 0 1 24-86.648l-16-16-.966 1.159a168.41 168.41 0 0 0 -39.034 107.815v43.026z" fill="#62ae88"/><path d="m184.2 208a167.664 167.664 0 0 0 -1.53 22.65v9.35h-32v-3.03a168.632 168.632 0 0 1 2.51-28.97z" fill="#62ae88"/><path d="m206.67 144c-.64 1.06-1.26 2.13-1.87 3.2a168.029 168.029 0 0 0 -13.01 28.8h-29.69a168.507 168.507 0 0 1 22.21-40c1.73-2.32 3.54-4.6 5.4-6.84l.96-1.16 8 8 6.86 6.86z" fill="#62ae88"/><circle cx="96" cy="256" fill="#62ae88" r="16"/><g fill="#5f967c"><path d="m190.839 152.592 137.161 44.828-20.6-26.173a80 80 0 0 0 -84.212-27.613z"/><path d="m190.839 152.592 128.686-65.292-33.078-3.938a80 80 0 0 0 -79.072 40.023z"/><path d="m191.125 152.685-137.161-44.827 32.085-8.958a80 80 0 0 1 84.266 27.451z"/><path d="m191.125 152.685-137.161-44.827 32.085-8.958a80 80 0 0 1 84.266 27.451z"/><path d="m191.125 152.685-65.289-128.685 29.018 16.357a80 80 0 0 1 40.174 79z"/><path d="m206.67 136-1.14 6.86-.73 4.34-13.01 28.8h-29.69a168.507 168.507 0 0 1 22.21-40z"/><path d="m184.2 208a167.664 167.664 0 0 0 -1.53 22.65v9.35h-32v-3.03a168.632 168.632 0 0 1 2.51-28.97z"/></g><path d="m264 312a40 40 0 1 1 64 0z" fill="#e82f3e"/><path d="m486.634 184a23.946 23.946 0 0 0 1.366-8 24.006 24.006 0 0 0 -17.281-23.04 32 32 0 1 0 -61.719-16.91c-.331-.02-.66-.05-1-.05a16 16 0 0 0 -16 16c0 .455.031.9.068 1.348a24.005 24.005 0 0 0 -16.068 22.652 23.946 23.946 0 0 0 1.366 8z" fill="#b0d2fd"/><path d="m118.634 208a24 24 0 0 0 -33.56-29.366 32 32 0 1 0 -56.793 29.366z" fill="#b0d2fd"/><path d="m368 80h-24a8 8 0 0 1 0-16h24a8 8 0 0 1 0 16z" fill="#b0d2fd"/><circle cx="208" cy="144" fill="#62ae88" r="16"/><circle cx="184" cy="136" fill="#62ae88" r="16"/><path d="m225.829 312a95.962 95.962 0 0 0 -83.157-48h-16a95.961 95.961 0 0 0 -83.157 48z" fill="#ebc643"/><path d="m488 320h-464a8 8 0 0 1 0-16h464a8 8 0 0 1 0 16z" fill="#0bafea"/><path d="m432 360a8 8 0 0 1 -8-8v-32a8 8 0 0 1 2.343-5.657l16-16a8 8 0 0 1 11.314 11.314l-13.657 13.656v28.687a8 8 0 0 1 -8 8z" fill="#fffbd5"/><path d="m334.088 369.889-19.055 38.111h-152a16 16 0 0 0 -16 16 16 16 0 0 0 16 16h176l16-32 11.055-22.111a17.889 17.889 0 0 0 -16-25.889 17.889 17.889 0 0 0 -16 9.889z" fill="#ebc643"/><path d="m163.033 440-8 48h32l8-24h112l8 24h32l-8-48z" fill="#bf6d48"/><circle cx="80" cy="456" fill="#faa6b2" r="32"/><path d="m184 352h-32a8 8 0 0 1 0-16h32a8 8 0 0 1 0 16z" fill="#0bafea"/><path d="m224 352h-8a8 8 0 0 1 0-16h8a8 8 0 0 1 0 16z" fill="#0bafea"/><path d="m312 352h-56a8 8 0 0 1 0-16h56a8 8 0 0 1 0 16z" fill="#0bafea"/><path d="m224 384h-24a8 8 0 0 1 0-16h24a8 8 0 0 1 0 16z" fill="#0bafea"/><path d="m288 384h-40a8 8 0 0 1 0-16h40a8 8 0 0 1 0 16z" fill="#0bafea"/><path d="m408 496a8 8 0 0 1 -8-8v-40a8 8 0 0 1 16 0v40a8 8 0 0 1 -8 8z" fill="#bf6d48"/><path d="m456 496a8 8 0 0 1 -8-8v-40a8 8 0 0 1 16 0v40a8 8 0 0 1 -8 8z" fill="#bf6d48"/><circle cx="400" cy="344" fill="#5f967c" r="16"/><circle cx="400" cy="344" fill="#69a88c" r="8"/><path d="m408 352v20.686a27.31 27.31 0 0 0 8 19.314v24h32v-24a27.315 27.315 0 0 0 8-19.314v-20.686z" fill="#e8ed73"/><path d="m472 448-40 16-40-16v-32h80z" fill="#dbdbdb"/><path d="m408 352h48v16h-48z" fill="#b0d2fd"/><path d="m424 352h16v16h-16z" fill="#598cdd"/><path d="m103.63 477.59a32.237 32.237 0 0 1 -12.78 8.53 5.572 5.572 0 0 1 -.51-.46l-.67-.68a66.579 66.579 0 0 1 -18.11-59.85 32.167 32.167 0 0 1 16.37-.14 6.317 6.317 0 0 1 -.17.95 50.51 50.51 0 0 0 13.22 47.73l.68.67a7.916 7.916 0 0 1 1.97 3.25z" fill="#ffd6dc"/><path d="m488 496h-464a8 8 0 0 1 0-16h464a8 8 0 0 1 0 16z" fill="#ebc643"/></g></svg>