<svg height="480pt" viewBox="0 0 480 480" width="480pt" xmlns="http://www.w3.org/2000/svg"><path d="m144 461.601562v18.398438h32v-16h-14.398438l21.597657-32h-19.199219zm0 0" fill="#d3ada3"/><path d="m212 432-20 29.601562v18.398438h32v-16h-14.398438l21.597657-32zm0 0" fill="#d3ada3"/><path d="m160 408h-56l16-120-8-80 48-24zm0 0" fill="#991616"/><path d="m224 272h-64l-16 40 16 56-24 72h96v-96zm0 0" fill="#219364"/><path d="m280 408h-56l24-136-16-64 48-24zm0 0" fill="#991616"/><path d="m288 160h-44l-3.199219 16h47.199219zm0 0" fill="#d3ada3"/><path d="m208 160c-4.800781 0-8-3.199219-8-8v-8h-32v16zm0 0" fill="#d3ada3"/><path d="m464 88c0 40-32 72-72 72h-6.398438l-4 16h10.398438c48.800781 0 88-39.199219 88-88zm0 0" fill="#e5c2b7"/><path d="m336 176h-8v-16h8c8.800781 0 16-7.199219 16-16h16c0 17.601562-14.398438 32-32 32zm0 0" fill="#d3ada3"/><path d="m200 80-8-48h-16l-8 48-16 16v16h64v-16zm0 0" fill="#f4b12a"/><path d="m194.5 101.820312 11.316406-11.316406 32.242188 32.246094-11.3125 11.3125zm0 0" fill="#c61e1e"/><path d="m160 128c0 13.601562 10.398438 24 24 24s24-10.398438 24-24v-24h-48zm0 0" fill="#e0c3bd"/><path d="m152 112h64v-16l-16-16h-32l-16 16zm0 0" fill="#d38d1c"/><g fill="#decba3"><path d="m88 112h16v48h-16zm0 0"/><path d="m72 128h48v16h-48zm0 0"/><path d="m48 56h16v48h-16zm0 0"/><path d="m32 72h48v16h-48zm0 0"/></g><path d="m184 351.199219 16 1.601562 8-80.800781h-16zm0 0" fill="#266d4f"/><path d="m176 0h16v32h-16zm0 0" fill="#f4b12a"/><path d="m264 461.601562v18.398438h32v-16h-14.398438l21.597657-32h-19.199219zm0 0" fill="#c9a8a3"/><path d="m312 461.601562v18.398438h32v-16h-14.398438l21.597657-32h-19.199219zm0 0" fill="#c9a8a3"/><path d="m360 264h-80l-16 48 8 56-16 72h104l16-72zm0 0" fill="#219364"/><path d="m328 361.601562-16-97.601562h16l16 94.398438zm0 0" fill="#266d4f"/><path d="m312 360.800781-16-1.601562 8-95.199219h16zm0 0" fill="#2a7758"/><path d="m424 216h16v48h-16zm0 0" fill="#e0d2b8"/><path d="m408 232h48v16h-48zm0 0" fill="#e0d2b8"/><path d="m448 280h16v48h-16zm0 0" fill="#e0d2b8"/><path d="m432 296h48v16h-48zm0 0" fill="#e0d2b8"/><path d="m320 152v-8h-32v16h40c-4.800781 0-8-3.199219-8-8zm0 0" fill="#e5c2b7"/><path d="m296 0h16v32h-16zm0 0" fill="#f4b12a"/><path d="m280 104v24c0 13.601562 10.398438 24 24 24s24-10.398438 24-24v-24zm0 0" fill="#efccbf"/><path d="m320 80-8-48h-16l-8 48-16 16v16h64v-16zm0 0" fill="#f4b12a"/><path d="m346.398438 133.601562-29.597657-29.601562 11.199219-11.199219 29.601562 29.597657zm0 0" fill="#c61e1e"/><path d="m272 112h64v-16l-16-16h-32l-16 16zm0 0" fill="#d38d1c"/><path d="m446.398438 134.398438 11.203124 11.203124c4.796876-5.601562 9.597657-12 12.796876-19.203124l-12-12c-2.398438 8-6.398438 14.402343-12 20zm0 0" fill="#d38d1c"/><path d="m288 160v5.601562c0 3.199219-1.601562 5.597657-4.800781 7.199219l-39.199219 19.199219 36 72h80l25.601562-104zm0 0" fill="#c61e1e"/><path d="m288 160v5.601562c0 3.199219-1.601562 5.597657-4.800781 7.199219l-24.800781 12 37.601562 31.199219h16l40-48 1.601562-8zm0 0" fill="#219364"/><path d="m168 160v5.601562c0 3.199219-1.601562 5.597657-4.800781 7.199219l-43.199219 20.800781 40 46.398438v32h64l20-112zm0 0" fill="#c61e1e"/><path d="m13.601562 244.800781c-8 4-13.601562 12.800781-13.601562 21.597657v13.601562h16v-13.601562c0-3.199219 1.601562-5.597657 4.800781-7.199219l110.398438-52.800781-11.199219-12.796876zm0 0" fill="#d3ada3"/><path d="m12.800781 244.800781 12 12 21.597657-10.402343-12-12zm0 0" fill="#d38d1c"/><path d="m168 160v5.601562c0 3.199219-1.601562 5.597657-4.800781 7.199219l-29.597657 14.398438 66.398438 36.800781h8l28-64zm0 0" fill="#219364"/><path d="m133.601562 244.800781c-8 4-13.601562 12.800781-13.601562 21.597657v13.601562h16v-13.601562c0-3.199219 1.601562-5.597657 4.800781-7.199219l110.398438-52.800781-7.199219-14.398438zm0 0" fill="#d3ada3"/><path d="m146.398438 256 20-9.601562-9.597657-12.796876-20.800781 9.597657zm0 0" fill="#d38d1c"/></svg>