<svg id="Capa_1" enable-background="new 0 0 512 512" height="512" viewBox="0 0 512 512" width="512" xmlns="http://www.w3.org/2000/svg"><g><g><path d="m241 0h30v49.659h-30z" fill="#0090be"/></g><g><path d="m256 0h15v49.659h-15z" fill="#00607f"/></g><g><path d="m157.17 31.367h197.66v79.811h-197.66z" fill="#00607f"/></g><g><path d="m256 31.367h98.83v79.811h-98.83z" fill="#002c3c"/></g><g><g><g><path d="m115.708 98.731h280.584v398.27h-280.584z" fill="#0090be"/></g><g><path d="m256 98.731h140.292v398.27h-140.292z" fill="#00607f"/></g><g><path d="m180.688 357.371h150.624v139.629h-150.624z" fill="#d4fff8"/></g><g><path d="m256 357.371h75.312v139.629h-75.312z" fill="#75e1f7"/></g><g><path d="m165.688 158.205h30v30h-30z" fill="#d4fff8"/></g><g><path d="m316.312 158.204h30v30h-30z" fill="#75e1f7"/></g><g><path d="m241 158.205h30v30h-30z" fill="#d4fff8"/></g><g><path d="m165.688 218.541h30v30h-30z" fill="#d4fff8"/></g><g><path d="m316.312 218.541h30v30h-30z" fill="#75e1f7"/></g><g><path d="m241 218.541h30v30h-30z" fill="#d4fff8"/></g><g><path d="m165.688 278.878h30v30h-30z" fill="#d4fff8"/></g><g><path d="m316.312 278.878h30v30h-30z" fill="#75e1f7"/></g><g><path d="m241 278.878h30v30h-30z" fill="#d4fff8"/></g><g><path d="m256 158.205h15v30h-15z" fill="#75e1f7"/></g><g><path d="m256 218.541h15v30h-15z" fill="#75e1f7"/></g><g><path d="m256 278.878h15v30h-15z" fill="#75e1f7"/></g></g></g><g><path d="m51.288 482h409.424v30h-409.424z" fill="#00607f"/></g><g><path d="m256 482h204.712v30h-204.712z" fill="#002c3c"/></g></g></svg>